<?xml version="1.0" encoding="utf-8"?>
<svg viewBox="0 0 200 200" xmlns="http://www.w3.org/2000/svg" xmlns:bx="https://boxy-svg.com">
  <rect width="200" height="200" style="stroke-width: 2px; fill: rgb(238, 238, 238);" rx="12.129" ry="12.129"/>
  <path style="stroke-width: 2px; fill: rgb(214, 0, 0);" d="M 12.129 0 L 187.871 0 C 194.57 0 200 5.43 200 12.129 L 200 60.532 L 0 60.532 L 0 12.129 C 0 5.43 5.43 0 12.129 0 Z" bx:origin="0.499915 0.5"/>
  <path d="M 34.697672080993655 38.875823974609375 L 23.143082237243654 38.875823974609375 L 20.13644161224365 45.430999755859375 L 15.748843955993653 45.430999755859375 L 29.10392208099365 16.745550537109377 L 41.98702754974365 45.430999755859375 L 37.52950801849365 45.430999755859375 Z M 33.037027549743655 35.047601318359376 L 29.03400020599365 25.870355224609376 L 24.83868770599365 35.047601318359376 Z M 52.00069122314453 18.441156005859376 L 52.00069122314453 34.697991943359376 Q 52.00069122314453 38.176605224609375 53.13692169189453 39.78480834960938 Q 54.83252716064453 42.109710693359375 57.90908966064453 42.109710693359375 Q 61.00313262939453 42.109710693359375 62.69873809814453 39.78480834960938 Q 63.83496856689453 38.22904663085937 63.83496856689453 34.697991943359376 L 63.83496856689453 18.441156005859376 L 67.90791778564453 18.441156005859376 L 67.90791778564453 35.816741943359375 Q 67.90791778564453 40.081976318359374 65.25088653564453 42.84389038085938 Q 62.26172637939453 45.92045288085937 57.90908966064453 45.92045288085937 Q 53.556452941894534 45.92045288085937 50.584773254394534 42.84389038085938 Q 47.92774200439453 40.081976318359374 47.92774200439453 35.816741943359375 L 47.92774200439453 18.441156005859376 Z M 91.8525604248047 31.376702880859376 L 103.00509948730469 31.376702880859376 L 103.00509948730469 32.26820678710938 Q 103.00509948730469 35.309808349609376 102.28840026855468 37.652191162109375 Q 101.58918151855468 39.819769287109374 99.92853698730468 41.70765991210938 Q 96.17023620605468 45.937933349609374 90.3667205810547 45.937933349609374 Q 84.70304870605469 45.937933349609374 80.6650604248047 41.847503662109375 Q 76.62707214355468 37.739593505859375 76.62707214355468 31.988519287109376 Q 76.62707214355468 26.115081787109375 80.73498229980468 22.024652099609376 Q 84.84289245605468 17.916741943359376 90.73381042480469 17.916741943359376 Q 93.89777526855468 17.916741943359376 96.64220886230468 19.21029663085938 Q 99.26427917480468 20.503851318359377 101.79894714355468 23.405609130859375 L 98.89718933105469 26.185003662109377 Q 95.57590026855469 21.762445068359376 90.8037322998047 21.762445068359376 Q 86.5210174560547 21.762445068359376 83.61925964355468 24.716644287109375 Q 80.71750183105469 27.618402099609376 80.71750183105469 31.988519287109376 Q 80.71750183105469 36.498480224609374 83.95138854980469 39.417718505859376 Q 86.97550964355469 42.127191162109376 90.50656433105469 42.127191162109376 Q 93.5132049560547 42.127191162109376 95.90802917480468 40.099456787109375 Q 98.30285339355468 38.05424194335937 98.5825408935547 35.204925537109375 L 91.8525604248047 35.204925537109375 Z M 115.79952697753906 18.441156005859376 L 115.79952697753906 34.697991943359376 Q 115.79952697753906 38.176605224609375 116.93575744628906 39.78480834960938 Q 118.63136291503906 42.109710693359375 121.70792541503906 42.109710693359375 Q 124.80196838378906 42.109710693359375 126.49757385253906 39.78480834960938 Q 127.63380432128906 38.22904663085937 127.63380432128906 34.697991943359376 L 127.63380432128906 18.441156005859376 L 131.70675354003907 18.441156005859376 L 131.70675354003907 35.816741943359375 Q 131.70675354003907 40.081976318359374 129.04972229003906 42.84389038085938 Q 126.06056213378906 45.92045288085937 121.70792541503906 45.92045288085937 Q 117.35528869628907 45.92045288085937 114.38360900878907 42.84389038085938 Q 111.72657775878906 40.081976318359374 111.72657775878906 35.816741943359375 L 111.72657775878906 18.441156005859376 Z M 157.0353973388672 22.461663818359376 L 153.7315887451172 24.419476318359376 Q 152.80512390136718 22.811273193359376 151.9660614013672 22.321820068359376 Q 151.0920379638672 21.762445068359376 149.7110809326172 21.762445068359376 Q 148.01547546386718 21.762445068359376 146.8967254638672 22.723870849609376 Q 145.7779754638672 23.667816162109375 145.7779754638672 25.101214599609378 Q 145.7779754638672 27.076507568359375 148.71469421386718 28.282659912109377 L 151.40668640136718 29.383929443359378 Q 154.6930145263672 30.712445068359376 156.21381530761718 32.626556396484375 Q 157.7346160888672 34.54066772460938 157.7346160888672 37.320062255859376 Q 157.7346160888672 41.043402099609374 155.25238952636718 43.47318725585937 Q 152.7526824951172 45.92045288085937 149.04682312011718 45.92045288085937 Q 145.5332489013672 45.92045288085937 143.2433074951172 43.840277099609374 Q 140.9883270263672 41.760101318359375 140.4289520263672 37.984320068359374 L 144.5543426513672 37.07533569335938 Q 144.8340301513672 39.45267944335937 145.5332489013672 40.361663818359375 Q 146.79184265136718 42.109710693359375 149.2041473388672 42.109710693359375 Q 151.1095184326172 42.109710693359375 152.36811218261718 40.83363647460938 Q 153.6267059326172 39.557562255859374 153.6267059326172 37.59974975585938 Q 153.6267059326172 36.81312866210938 153.4082000732422 36.15761108398438 Q 153.1896942138672 35.50209350585938 152.7264617919922 34.95145874023437 Q 152.2632293701172 34.400823974609374 151.5290496826172 33.920111083984374 Q 150.79486999511718 33.439398193359374 149.7810028076172 33.002386474609374 L 147.1764129638672 31.918597412109378 Q 141.63510437011718 29.576214599609376 141.63510437011718 25.066253662109375 Q 141.63510437011718 22.024652099609376 143.9600067138672 19.979437255859377 Q 146.2849090576172 17.916741943359376 149.74604187011718 17.916741943359376 Q 154.4133270263672 17.916741943359376 157.0353973388672 22.461663818359376 Z M 174.20012817382812 22.26937866210938 L 174.20012817382812 45.430999755859375 L 170.12717895507814 45.430999755859375 L 170.12717895507814 22.26937866210938 L 163.92161254882814 22.26937866210938 L 163.92161254882814 18.441156005859376 L 180.38821411132812 18.441156005859376 L 180.38821411132812 22.26937866210938 Z" transform="matrix(1, 0, 0, 1, 0, 0)" style="fill: rgb(255, 255, 255); white-space: pre;"/>
  <path d="M 32.256999633789064 172.4929962158203 L 89.49599963378905 172.4929962158203 L 89.49599963378905 161.6741962158203 L 45.46599963378906 161.6741962158203 C 45.717599633789064 141.42039621582032 88.11219963378906 136.8915962158203 88.11219963378906 107.70599621582032 C 88.11219963378906 92.35839621582032 76.41279963378906 82.16859621582032 60.058799633789064 82.16859621582032 C 40.05659963378906 82.16859621582032 32.00539963378906 99.02579621582032 32.00539963378906 99.02579621582032 L 41.18879963378906 105.18999621582032 C 41.18879963378906 105.18999621582032 47.478799633789066 93.86799621582031 59.17819963378906 93.86799621582031 C 68.48739963378907 93.86799621582031 75.15479963378905 99.78059621582031 75.15479963378905 108.58659621582032 C 75.15479963378905 129.46939621582032 31.627999633789063 133.99819621582031 31.627999633789063 165.6997962158203 C 31.627999633789063 167.83839621582032 31.879599633789063 170.10279621582032 32.256999633789064 172.4929962158203 Z M 135.91541726074217 174.00259621582032 C 159.6916172607422 174.00259621582032 167.3654172607422 153.6229962158203 167.3654172607422 127.95979621582032 C 167.3654172607422 102.42239621582031 159.6916172607422 82.16859621582032 135.91541726074217 82.16859621582032 C 112.26501726074218 82.16859621582032 104.59121726074218 102.42239621582031 104.59121726074218 127.95979621582032 C 104.59121726074218 153.6229962158203 112.26501726074218 174.00259621582032 135.91541726074217 174.00259621582032 Z M 135.91541726074217 162.55479621582032 C 121.44841726074219 162.55479621582032 117.2970172607422 147.33299621582032 117.2970172607422 127.95979621582032 C 117.2970172607422 108.71239621582032 121.44841726074219 93.61639621582032 135.91541726074217 93.61639621582032 C 150.50821726074219 93.61639621582032 154.65961726074218 108.71239621582032 154.65961726074218 127.95979621582032 C 154.65961726074218 147.33299621582032 150.50821726074219 162.55479621582032 135.91541726074217 162.55479621582032 Z" transform="matrix(1, 0, 0, 1, 0, 0)" style="fill: rgb(51, 51, 51); white-space: pre;"/>
</svg>