<?xml version="1.0" standalone="no"?>
<!DOCTYPE svg PUBLIC "-//W3C//DTD SVG 20010904//EN"
 "http://www.w3.org/TR/2001/REC-SVG-20010904/DTD/svg10.dtd">
<svg version="1.0" xmlns="http://www.w3.org/2000/svg"
 width="256.000000pt" height="256.000000pt" viewBox="0 0 256.000000 256.000000"
 preserveAspectRatio="xMidYMid meet">
<metadata>
Created by potrace 1.14, written by Peter Selinger 2001-2017
</metadata>
<g transform="translate(0.000000,256.000000) scale(0.100000,-0.100000)"
fill="#000000" stroke="none">
<path d="M2278 2520 c-29 -15 -48 -18 -82 -14 -62 9 -93 -1 -111 -37 -28 -53
-68 -69 -175 -69 -52 0 -118 -6 -146 -14 -81 -21 -93 -31 -258 -204 -88 -93
-120 -102 -355 -102 -249 0 -276 -10 -441 -159 -72 -65 -99 -74 -247 -82 -154
-8 -192 -22 -270 -97 -59 -58 -67 -72 -88 -158 -9 -38 -23 -79 -31 -91 -31
-49 -14 -89 53 -131 27 -16 96 -77 155 -136 59 -58 115 -106 125 -106 10 0 41
14 68 30 104 62 267 130 313 130 9 0 29 4 46 10 17 5 60 16 96 26 81 20 216
83 295 136 33 23 93 73 132 111 119 116 152 133 393 208 74 23 150 51 170 63
19 11 57 32 84 46 91 47 335 309 367 395 13 35 19 76 19 136 0 76 -2 88 -23
107 -29 27 -42 27 -89 2z m-521 -199 c-18 -17 -52 -36 -74 -44 l-42 -14 16 23
c21 32 73 64 106 64 l28 0 -34 -29z m-687 -300 c0 -5 -38 -37 -84 -70 -78 -56
-87 -60 -110 -50 -14 7 -26 15 -26 18 1 17 57 66 98 87 46 24 122 33 122 15z
m-649 -251 c23 0 6 -32 -29 -54 -53 -33 -114 -93 -147 -143 -29 -46 -32 -48
-54 -34 -23 15 16 117 66 171 32 34 116 72 141 64 8 -2 18 -4 23 -4z m159
-189 c0 -5 -13 -14 -29 -19 -15 -5 -52 -39 -82 -75 -30 -35 -63 -70 -73 -77
-18 -11 -17 -9 2 21 12 19 33 55 46 81 14 26 36 54 48 62 24 17 88 22 88 7z"/>
<path d="M2323 1781 c-18 -12 -33 -25 -33 -30 0 -6 -14 -5 -37 1 -20 5 -50 7
-66 4 -30 -6 -67 -39 -67 -61 0 -15 -48 -59 -85 -77 -16 -9 -68 -18 -114 -22
-138 -11 -211 -54 -327 -192 -70 -84 -153 -111 -384 -129 -126 -9 -213 -53
-329 -165 -64 -61 -120 -96 -176 -111 -158 -41 -198 -52 -250 -70 -128 -44
-202 -104 -241 -197 -7 -19 -23 -72 -34 -119 -11 -47 -29 -98 -40 -113 -12
-17 -20 -44 -20 -70 0 -53 39 -96 96 -105 90 -14 87 -12 80 -53 -19 -115 -18
-136 6 -171 31 -46 63 -68 120 -83 60 -15 146 0 233 42 33 15 103 48 155 73
60 28 115 62 150 94 75 68 92 76 190 83 120 10 192 40 260 109 73 73 112 135
150 233 48 128 56 135 148 142 172 13 270 40 331 92 23 20 71 80 107 135 65
99 93 126 219 212 115 79 149 162 144 347 -3 101 -7 123 -25 146 -49 66 -110
87 -161 55z m-480 -308 c-6 -14 -17 -16 -50 -7 -30 8 -29 16 4 36 25 15 28 15
39 0 6 -9 10 -22 7 -29z m-603 -289 c0 -9 -5 -12 -12 -8 -8 5 -9 2 -5 -9 4
-11 1 -17 -7 -17 -7 0 -21 -9 -32 -21 -43 -48 -84 -44 -84 7 0 26 26 44 64 44
14 0 28 5 31 10 10 16 45 12 45 -6z m-730 -325 c0 -23 -15 -39 -95 -99 -37
-29 -59 -38 -87 -38 -28 0 -38 4 -38 16 0 30 51 81 111 111 75 37 109 40 109
10z"/>
</g>
</svg>
